<svg xmlns="http://www.w3.org/2000/svg" viewBox="0 0 256 256" role="img" aria-label="Schmube app icon">
  <defs>
    <linearGradient id="tile" x1="28" y1="228" x2="228" y2="28" gradientUnits="userSpaceOnUse">
      <stop offset="0" stop-color="#0d9488" />
      <stop offset="0.52" stop-color="#111827" />
      <stop offset="1" stop-color="#ec4899" />
    </linearGradient>
    <linearGradient id="screen" x1="56" y1="78" x2="200" y2="178" gradientUnits="userSpaceOnUse">
      <stop offset="0" stop-color="#f8fafc" />
      <stop offset="1" stop-color="#d8fff6" />
    </linearGradient>
    <filter id="shadow" x="-20%" y="-20%" width="140%" height="150%">
      <feDropShadow dx="0" dy="12" stdDeviation="14" flood-color="#000000" flood-opacity="0.28" />
    </filter>
  </defs>

  <rect width="256" height="256" rx="52" fill="url(#tile)" />
  <path d="M34 184C82 207 146 207 222 165V256H34Z" fill="#0f766e" opacity="0.52" />
  <path d="M42 36H194C205 36 214 45 214 56V199C214 211 205 220 193 220H62C51 220 42 211 42 200Z" fill="#020617" opacity="0.22" />

  <g filter="url(#shadow)">
    <rect x="49" y="70" width="158" height="108" rx="22" fill="url(#screen)" />
    <rect x="62" y="84" width="132" height="80" rx="15" fill="#111827" />
    <path d="M113 104L153 124C158 127 158 134 153 136L113 157C108 160 101 156 101 150V111C101 105 108 101 113 104Z" fill="#2dd4bf" />
    <path d="M88 196H168" stroke="#f8fafc" stroke-width="14" stroke-linecap="round" />
    <path d="M128 177V196" stroke="#f8fafc" stroke-width="14" stroke-linecap="round" />
  </g>

  <path d="M87 55C112 39 144 39 169 55" fill="none" stroke="#ffffff" stroke-width="12" stroke-linecap="round" opacity="0.94" />
  <path d="M106 50C120 43 136 43 150 50" fill="none" stroke="#f472b6" stroke-width="11" stroke-linecap="round" opacity="0.95" />
  <circle cx="128" cy="55" r="8" fill="#ffffff" />
</svg>
